<svg id="Layer_1" data-name="Layer 1" xmlns="http://www.w3.org/2000/svg" viewBox="0 0 406.13 414.63"><title>leftarrow</title><path d="M525.54,185.52l150.8,87.42,150.79,87.42L676,447.24,524.92,534.12l.31-174.3.31-174.3M506.6,152.58l-.37,207.21L505.87,567,685.5,463.71,865.13,360.42,685.87,256.5,506.6,152.58Z" transform="translate(-505.87 -152.58)"/><path d="M554.46,154.52,732.23,257.58,910,360.63,731.87,463.06,553.74,565.48,554.1,360l.36-205.48m-1-1.73L553.1,360l-.37,207.21L732.37,463.92,912,360.63,732.73,256.71,553.47,152.79Z" transform="translate(-505.87 -152.58)"/><polygon points="76.73 327.31 180.43 267.68 284.13 208.06 179.42 145.93 74.7 83.8 75.72 205.55 76.73 327.31"/></svg>