<svg id="Layer_1" data-name="Layer 1" xmlns="http://www.w3.org/2000/svg" viewBox="0 0 406.13 414.63"><title>rightarrow</title><path d="M762.33,188.52l.3,174.3.31,174.3-151.1-86.88L460.73,363.36l150.8-87.42,150.8-87.42m18.94-32.94L602,259.5,422.73,363.42,602.37,466.71,782,570l-.37-207.21-.36-207.21Z" transform="translate(-375.87 -155.58)"/><path d="M733.4,157.52,733.77,363l.36,205.48L556,466.06,377.87,363.63l177.77-103L733.4,157.52m1-1.73L555.13,259.71,375.87,363.63,555.5,466.92,735.13,570.21,734.77,363l-.37-207.21Z" transform="translate(-375.87 -155.58)"/><polygon points="329.4 327.31 225.7 267.68 122 208.06 226.72 145.93 331.43 83.8 330.42 205.55 329.4 327.31"/></svg>